<svg xmlns="http://www.w3.org/2000/svg" xmlns:xlink="http://www.w3.org/1999/xlink" id="uuid-b476e712-916f-4a01-b952-537547ab0b9f" viewBox="0 0 221.9 54"><defs><style>.uuid-86f3a600-03ee-4a2a-aa02-834e9d038498{fill:url(#uuid-bad3db0d-ea61-4f4d-9ab4-91cb3c15bc46);}.uuid-b347d027-f36f-4ecd-9058-1e9f9447be5c{fill:#f5d626;}</style><radialGradient id="uuid-bad3db0d-ea61-4f4d-9ab4-91cb3c15bc46" cx="27.1" cy="26.9" fx="27.1" fy="26.9" r="26.7" gradientUnits="userSpaceOnUse"><stop offset="0" stop-color="#793fa5"></stop><stop offset=".4" stop-color="#773da2"></stop><stop offset=".6" stop-color="#703899"></stop><stop offset=".8" stop-color="#662f8a"></stop><stop offset="1" stop-color="#572274"></stop><stop offset="1" stop-color="#562172"></stop></radialGradient></defs><g id="uuid-5b3915cb-43fa-45e4-ac8e-f0c43d42063a"><circle class="uuid-86f3a600-03ee-4a2a-aa02-834e9d038498" cx="27.1" cy="26.9" r="26.7"></circle><path class="uuid-b347d027-f36f-4ecd-9058-1e9f9447be5c" d="M27,54C12.2,54.1,0,42,0,27.2c1.1-36.1,52.8-36.3,54.3-.3.1,14.9-11.9,27.2-27.2,27.1ZM9,22.6s0,0,0,0c-1.6,3.4-3,6.9-1.5,10.6.2.4.2.9.7,1.2.5-1.2.7-2.5,1.5-3.5-.5,1.9-.7,3.8-.4,5.6.3,2,1.8,3.3,3.3,4.8-.2-1.5-.5-2.8-.2-4.1.9,2.4,1,5.3,3.4,6.8,2.6,1.7,5.5,2.8,8.6,3.2,1.2.2,1.2.2,1.2-1.1,0-2.5,0-5.1,0-7.6,0-.5,0-1,.7-1.4-11.3-1.7-16.1-9-14.8-20,.1-2.4-1-4.5-2.4-6.3-.8-1-.8-1-1.6,0C-1.3,21.4.3,38.1,11,46.6c10.4,9,27.5,7.3,35.9-3.6,7.8-9.1,7.5-23.4-.3-32.4-.4-.5-.7-.7-1.1,0-1.4,2-2.9,3.9-2.6,6.4,0,3.5.5,7.1-.9,10.4-2.3,5.6-6.8,8.4-12.5,9.5-.6.1-1.3,0-.8,1,.1.3,0,.6,0,.9,0,2.5,0,5,0,7.5,0,.7.1,1,.9.9,5-.8,10.7-2.6,11.7-8.2,0-.3.1-.6.6-.8.2.6,0,1.2,0,1.8,0,.3-.2.7,0,.9.4.2.6-.3.8-.5,1.1-1.4,2.5-2.8,2.3-4.7,0-.9,0-1.7-.1-2.6,0-.3-.2-.7.1-.8.4,0,.4.4.4.7.2.3.3,1.3.7,1.4.2,0,.3-.1.3-.3.6-1.6,1.2-3.2.9-5-.3-2-.9-3.9-1.9-5.8,0-.1-.3-.3,0-.5.9.7,1.3,1.7,2,2.7.4-2.8-1-5.3-2.1-7.7-.6-1.2-1.3-2.5-.9-4,.3-1.5,1.7,1.5,2.1,2,9.3,15.8-4.1,35.8-22.2,33.4C7.8,47.4-1.1,27.4,8.9,14c.2-.2.3-.7.7-.6.3,0,.3.5.4.8.1.8,0,1.6-.5,2.4-1.5,2.7-2.6,5.6-2.7,9,.9-1.1,1.2-2.2,2.4-2.9ZM28.7,23.8h0c0,3.1,0,6.2,0,9.3-.1,1.6,1.7.4,2.8.2,4.3-1.6,8.1-5.7,7.9-11.1-.1-2.2,0-4.5,0-6.7,0-3.2,1.5-5.2,4.6-6.2,1-.3,1-.4.2-1.1C34.8-.4,19.5-.4,10.2,8.2c-.8.6-.9,1,.2,1.2,3.1,1,4.5,3,4.5,6.2,0,2.3,0,4.6,0,6.8-.2,5.9,4.5,10.3,9.7,11.5.9.2,1-.1,1-.9,0-6.1,0-12.2,0-18.2,0-1.2-.4-2.2-1.5-2.9-.6-.2-.5-.8.2-.8,1.9,0,3.7,0,5.6,0,.6,0,1,.5.3.8-1.1.7-1.5,1.7-1.5,2.9,0,3,0,6,0,9Z"></path><path class="uuid-b347d027-f36f-4ecd-9058-1e9f9447be5c" d="M14.4,33.2c.9.4,1.2,1.2,1.4,1.9,1,4,4,7.2,7.8,8.5.4.2.9.6.7,1-.2.6-.7.1-1.1,0-4.8-1.4-8.9-6.4-8.8-11.5Z"></path><path class="uuid-b347d027-f36f-4ecd-9058-1e9f9447be5c" d="M39.9,33.1c-.2,5.4-3.9,10-8.9,11.5-.3,0-.8.5-1,0-.2-.4.2-.8.6-1,3.8-1.5,6.8-4.3,7.8-8.4.2-.8.5-1.6,1.4-2.1Z"></path><polygon class="uuid-b347d027-f36f-4ecd-9058-1e9f9447be5c" points="9 22.6 9.1 22.6 9 22.6 9 22.6"></polygon><path class="uuid-b347d027-f36f-4ecd-9058-1e9f9447be5c" d="M27.2,6.5c-4.4,0-8.3,1.2-11.8,3.7-1,.8-2.6-.7-1.3-1.3,7.6-5.6,18.3-5.6,26-.2.3.3,1.1.4.5,1-.4.5-.8,1.1-1.7.4-3.5-2.5-7.5-3.7-11.7-3.7Z"></path><path class="uuid-b347d027-f36f-4ecd-9058-1e9f9447be5c" d="M37.6,25.7c0,.3-.1.7-.4.8-.3.1-.4-.3-.6-.5-1.6-2.2-3.7-3.6-6.2-4.7-.4-.3-.8-.7-.6-1.2.2-.5.7-.1,1.1,0,2.3.7,4.2,2,5.9,3.8.4.5.7,1,.7,1.7Z"></path><path class="uuid-b347d027-f36f-4ecd-9058-1e9f9447be5c" d="M17.1,26.2c-.3,0-.4-.3-.4-.5,0-.5.1-1,.4-1.3,1.7-2,3.8-3.5,6.4-4.2.3,0,.6-.3.8,0,.2.3,0,.5-.3.8-1,.8-2.8,1.3-4.1,2.3-1.2.7-1.9,1.9-2.8,2.9Z"></path><path class="uuid-b347d027-f36f-4ecd-9058-1e9f9447be5c" d="M69.3,13.4h-4.2v-2.9h12v2.9h-4.2v10.7h-3.7v-10.7Z"></path><path class="uuid-b347d027-f36f-4ecd-9058-1e9f9447be5c" d="M90,24.4c-1.1,0-2.1-.2-3-.5-.9-.3-1.7-.8-2.3-1.5-.7-.6-1.2-1.4-1.5-2.3-.4-.9-.5-1.8-.5-2.9s.2-1.9.6-2.8.9-1.6,1.6-2.3c.7-.6,1.5-1.1,2.4-1.5.9-.4,1.9-.5,2.9-.5s2.1.2,3,.5c.9.3,1.7.8,2.3,1.5.7.6,1.2,1.4,1.5,2.3.4.9.6,1.8.6,2.9s-.2,1.9-.6,2.8-.9,1.6-1.6,2.3c-.7.6-1.5,1.1-2.4,1.5-.9.4-1.9.5-2.9.5ZM93.6,17.3c0-.8-.2-1.4-.5-2-.3-.6-.7-1.1-1.3-1.4-.5-.3-1.2-.5-1.9-.5s-1.3.2-1.9.5c-.6.3-1,.8-1.3,1.4-.3.6-.5,1.3-.5,2s.2,1.4.5,2c.3.6.7,1.1,1.3,1.4.6.3,1.2.5,1.9.5s1.4-.2,1.9-.5c.5-.3,1-.8,1.3-1.4.3-.6.5-1.3.5-2Z"></path><path class="uuid-b347d027-f36f-4ecd-9058-1e9f9447be5c" d="M104.1,10.4h3.8l3.7,7.6,3.7-7.6h3.7v13.7h-3.3v-8.6l-2.7,5.7h-2.8l-2.7-5.7v8.6h-3.3v-13.7Z"></path><path class="uuid-b347d027-f36f-4ecd-9058-1e9f9447be5c" d="M133.2,24.4c-1.1,0-2.1-.2-3-.5-.9-.3-1.7-.8-2.3-1.5-.7-.6-1.2-1.4-1.5-2.3-.4-.9-.5-1.8-.5-2.9s.2-1.9.6-2.8.9-1.6,1.6-2.3c.7-.6,1.5-1.1,2.4-1.5.9-.4,1.9-.5,2.9-.5s2.1.2,3,.5c.9.3,1.7.8,2.3,1.5.7.6,1.2,1.4,1.5,2.3.4.9.6,1.8.6,2.9s-.2,1.9-.6,2.8-.9,1.6-1.6,2.3c-.7.6-1.5,1.1-2.4,1.5-.9.4-1.9.5-2.9.5ZM136.8,17.3c0-.8-.2-1.4-.5-2-.3-.6-.7-1.1-1.3-1.4-.5-.3-1.2-.5-1.9-.5s-1.3.2-1.9.5c-.6.3-1,.8-1.3,1.4-.3.6-.5,1.3-.5,2s.2,1.4.5,2c.3.6.7,1.1,1.3,1.4.6.3,1.2.5,1.9.5s1.4-.2,1.9-.5c.5-.3,1-.8,1.3-1.4.3-.6.5-1.3.5-2Z"></path><path class="uuid-b347d027-f36f-4ecd-9058-1e9f9447be5c" d="M147.3,10.4h5c1.7,0,3,.4,3.9,1.2.9.8,1.4,2,1.4,3.4s-.2,1.5-.6,2.1-.9,1.1-1.4,1.5l3.3,5.4h-4l-2.4-4.4h-1.8v4.4h-3.4v-13.7ZM151.8,17.1c1.6,0,2.4-.7,2.4-2s-.8-2-2.3-2h-1v4h1Z"></path><path class="uuid-b347d027-f36f-4ecd-9058-1e9f9447be5c" d="M165.3,10.4h5c1.7,0,3,.4,3.9,1.2.9.8,1.4,2,1.4,3.4s-.2,1.5-.6,2.1-.9,1.1-1.4,1.5l3.3,5.4h-4l-2.4-4.4h-1.8v4.4h-3.4v-13.7ZM169.8,17.1c1.6,0,2.4-.7,2.4-2s-.8-2-2.3-2h-1v4h1Z"></path><path class="uuid-b347d027-f36f-4ecd-9058-1e9f9447be5c" d="M189.7,24.4c-1.1,0-2.1-.2-3-.5-.9-.3-1.7-.8-2.3-1.5-.7-.6-1.2-1.4-1.5-2.3-.4-.9-.5-1.8-.5-2.9s.2-1.9.6-2.8.9-1.6,1.6-2.3c.7-.6,1.5-1.1,2.4-1.5.9-.4,1.9-.5,2.9-.5s2.1.2,3,.5c.9.3,1.7.8,2.3,1.5.7.6,1.2,1.4,1.5,2.3.4.9.6,1.8.6,2.9s-.2,1.9-.6,2.8-.9,1.6-1.6,2.3c-.7.6-1.5,1.1-2.4,1.5-.9.4-1.9.5-2.9.5ZM193.3,17.3c0-.8-.2-1.4-.5-2-.3-.6-.7-1.1-1.3-1.4-.5-.3-1.2-.5-1.9-.5s-1.3.2-1.9.5c-.6.3-1,.8-1.3,1.4-.3.6-.5,1.3-.5,2s.2,1.4.5,2c.3.6.7,1.1,1.3,1.4.6.3,1.2.5,1.9.5s1.4-.2,1.9-.5c.5-.3,1-.8,1.3-1.4.3-.6.5-1.3.5-2Z"></path><path class="uuid-b347d027-f36f-4ecd-9058-1e9f9447be5c" d="M202.1,10.4h3.8l2,9.1,2.5-8.9h3.1l2.6,8.8,2-9h3.8l-4.1,13.7h-3.3l-2.6-8.8-2.5,8.8h-3.3l-4.1-13.7Z"></path><path class="uuid-b347d027-f36f-4ecd-9058-1e9f9447be5c" d="M67,30.2h3.6v10.7h5.8v2.9h-9.4v-13.7Z"></path><path class="uuid-b347d027-f36f-4ecd-9058-1e9f9447be5c" d="M83,30.2h3.6v13.7h-3.6v-13.7Z"></path><path class="uuid-b347d027-f36f-4ecd-9058-1e9f9447be5c" d="M94,30.2h9.3v2.9h-5.8v3h5v2.9h-5v5h-3.5v-13.7Z"></path><path class="uuid-b347d027-f36f-4ecd-9058-1e9f9447be5c" d="M110,30.2h9.5v2.8h-6.2v2.6h5.5v2.8h-5.5v2.8h6.4v2.8h-9.8v-13.7Z"></path></g></svg>